HIERARCHY
ROOT Hips
{
    OFFSET 0.000000 0.000000 0.000000
    CHANNELS 6 Xposition Yposition Zposition Zrotation Xrotation Yrotation
    JOINT Spine
    {
        OFFSET -0.000000 7.897928 0.000000
        CHANNELS 3 Zrotation Xrotation Yrotation
        JOINT Spine1
        {
            OFFSET -0.000000 22.881742 0.000000
            CHANNELS 3 Zrotation Xrotation Yrotation
            JOINT Neck
            {
                OFFSET -0.000000 22.787771 2.071616
                CHANNELS 3 Zrotation Xrotation Yrotation
                JOINT Head
                {
                    OFFSET -0.000000 13.484266 -1.926324
                    CHANNELS 3 Zrotation Xrotation Yrotation
                    End Site
                    {
                        OFFSET -0.000000 24.079046 0.000000
                    }
                }
            }
            JOINT LeftShoulder
            {
                OFFSET 3.854963 21.096247 -0.110468
                CHANNELS 3 Zrotation Xrotation Yrotation
                JOINT LeftArm
                {
                    OFFSET 10.572188 0.000000 0.000000
                    CHANNELS 3 Zrotation Xrotation Yrotation
                    JOINT LeftForeArm
                    {
                        OFFSET 34.932854 0.000000 0.000000
                        CHANNELS 3 Zrotation Xrotation Yrotation
                        JOINT LeftHand
                        {
                            OFFSET 23.279285 0.000000 0.000000
                            CHANNELS 3 Zrotation Xrotation Yrotation
                            End Site
                            {
                                OFFSET 14.447429 0.000000 0.000000
                            }
                        }
                    }
                }
            }
            JOINT RightShoulder
            {
                OFFSET -3.825334 21.096247 -0.110468
                CHANNELS 3 Zrotation Xrotation Yrotation
                JOINT RightArm
                {
                    OFFSET -10.572188 0.000000 0.000000
                    CHANNELS 3 Zrotation Xrotation Yrotation
                    JOINT RightForeArm
                    {
                        OFFSET -34.932854 0.000000 0.000000
                        CHANNELS 3 Zrotation Xrotation Yrotation
                        JOINT RightHand
                        {
                            OFFSET -23.279285 0.000000 0.000000
                            CHANNELS 3 Zrotation Xrotation Yrotation
                            End Site
                            {
                                OFFSET -14.447429 0.000000 0.000000
                            }
                        }
                    }
                }
            }
        }
    }
    JOINT LeftUpLeg
    {
        OFFSET 9.631618 0.000000 0.000000
        CHANNELS 3 Zrotation Xrotation Yrotation
        JOINT LeftLeg
        {
            OFFSET -0.000000 -35.385456 0.000000
            CHANNELS 3 Zrotation Xrotation Yrotation
            JOINT LeftFoot
            {
                OFFSET -0.000000 -43.284000 0.000000
                CHANNELS 3 Zrotation Xrotation Yrotation
                JOINT LeftToeBase
                {
                    OFFSET -0.000000 -6.260552 14.447429
                    CHANNELS 3 Zrotation Xrotation Yrotation
                    End Site
                    {
                        OFFSET -0.000000 0.000000 3.852648
                    }
                }
            }
        }
    }
    JOINT RightUpLeg
    {
        OFFSET -9.631618 0.000000 0.000000
        CHANNELS 3 Zrotation Xrotation Yrotation
        JOINT RightLeg
        {
            OFFSET -0.000000 -35.385456 0.000000
            CHANNELS 3 Zrotation Xrotation Yrotation
            JOINT RightFoot
            {
                OFFSET -0.000000 -43.284000 0.000000
                CHANNELS 3 Zrotation Xrotation Yrotation
                JOINT RightToeBase
                {
                    OFFSET -0.000000 -6.260552 14.447429
                    CHANNELS 3 Zrotation Xrotation Yrotation
                    End Site
                    {
                        OFFSET -0.000000 0.000000 3.852648
                    }
                }
            }
        }
    }
}
MOTION
Frames:    13
Frame Time:    0.008333
57.136490    87.408424    19.789537    0.335879    -0.078559    85.296722    2.071277    -2.522229    -1.401098    -4.007852    -3.353265    -1.564074    -2.905924    17.139343    -9.866190    12.097994    3.204336    -8.918980    17.120312    -0.124202    4.662422    -17.718342    -4.033034    -10.129066    3.213132    -2.428950    -0.767780    -6.240080    -2.477920    1.294388    -13.441405    -0.196843    12.476124    14.969223    -0.414404    1.986252    -1.610657    -0.991304    0.912907    2.955569    -0.833332    5.620750    7.449536    6.296742    2.470067    -4.210890    4.434445    3.502955    -4.943792    -10.006973    14.821798    0.000000    0.000000    0.000000    -8.050005    0.347089    -1.231068    3.902277    9.114293    -0.741800    4.192044    -9.369761    -9.864199    0.000000    0.000000    0.000000    
57.145054    87.413330    19.788561    0.359172    -0.078802    85.287727    2.071720    -2.499039    -1.392411    -4.009134    -3.350369    -1.554897    -2.891154    17.167210    -9.874321    12.097435    3.174422    -8.925038    17.120777    -0.121354    4.661212    -17.718058    -4.073894    -10.149535    3.162485    -2.422688    -0.756143    -5.800086    -2.450726    0.965993    -13.435534    -0.190808    12.466088    14.961133    -0.425613    1.985507    -1.604960    -1.011624    0.914773    2.993369    -0.851941    5.619044    7.442973    6.329099    2.479927    -4.204252    4.433582    3.511517    -4.978249    -10.002090    14.801924    0.000000    0.000000    0.000000    -8.052248    0.371947    -1.202393    3.908751    9.115341    -0.780600    4.196520    -9.364429    -9.852808    0.000000    0.000000    0.000000    
57.140495    87.408783    19.783171    0.322210    -0.082050    85.293922    2.086167    -2.514204    -1.394643    -4.007769    -3.383439    -1.558856    -2.915498    17.207945    -9.877354    12.120451    3.153368    -8.924704    17.106697    -0.120677    4.648799    -17.705202    -4.039740    -10.136423    3.170725    -2.416228    -0.773082    -5.843132    -2.444331    0.970044    -13.441423    -0.195862    12.489358    14.966149    -0.454107    1.964823    -1.568841    -0.917338    0.860950    3.016040    -0.753971    5.756597    7.447379    6.280767    2.478963    -4.206883    4.447545    3.513006    -4.951562    -10.013773    14.803005    0.000000    0.000000    0.000000    -8.048661    0.336036    -1.237281    3.896240    9.120159    -0.736794    4.199264    -9.375355    -9.855501    0.000000    0.000000    0.000000    
57.143257    87.409126    19.777411    0.320084    -0.074724    85.290794    2.092038    -2.513770    -1.385081    -4.030676    -3.376258    -1.549832    -2.862127    17.200125    -9.893696    12.082279    3.156411    -8.945804    17.137657    -0.132167    4.637687    -17.692120    -4.049029    -10.161610    3.087347    -2.375065    -0.676146    -5.803663    -2.396326    0.778779    -13.417232    -0.197952    12.459061    14.952915    -0.436722    1.974889    -1.570587    -0.903485    0.874174    2.996572    -0.741032    5.748672    7.434883    6.275055    2.464655    -4.205211    4.460763    3.523367    -4.948159    -10.024119    14.804593    0.000000    0.000000    0.000000    -8.062152    0.331620    -1.248635    3.895065    9.118691    -0.712975    4.196538    -9.372620    -9.859066    0.000000    0.000000    0.000000    
57.147346    87.409370    19.773176    0.315506    -0.071591    85.287537    2.094530    -2.523063    -1.376453    -4.040734    -3.367980    -1.541447    -2.827857    17.229517    -9.900088    12.065917    3.125698    -8.951633    17.152184    -0.120157    4.610999    -17.696348    -4.046949    -10.155963    3.121686    -2.409528    -0.771577    -5.736247    -2.436710    0.962340    -13.392457    -0.196950    12.454207    14.934620    -0.414194    1.967220    -1.564848    -0.892992    0.868928    2.842141    -0.736825    5.811721    7.427631    6.275237    2.472825    -4.202454    4.456698    3.498466    -4.968814    -10.030282    14.824759    0.000000    0.000000    0.000000    -8.066302    0.329477    -1.244842    3.897747    9.118600    -0.746841    4.211486    -9.381765    -9.843699    0.000000    0.000000    0.000000    
57.151516    87.409988    19.769787    0.318067    -0.069408    85.287041    2.103012    -2.504256    -1.382859    -4.038429    -3.402301    -1.548844    -2.844549    17.277376    -9.886786    12.060558    3.096002    -8.936689    17.124304    -0.113784    4.607547    -17.685678    -4.014204    -10.139605    3.154853    -2.437884    -0.781370    -5.676183    -2.462865    0.937700    -13.401725    -0.171034    12.481862    14.935635    -0.434205    1.968825    -1.585063    -0.861678    0.870527    2.974619    -0.699602    5.774560    7.426256    6.277382    2.456069    -4.215580    4.459075    3.549400    -4.948249    -10.023719    14.804143    0.000000    0.000000    0.000000    -8.073530    0.330808    -1.229282    3.902818    9.121805    -0.742759    4.197685    -9.375439    -9.856908    0.000000    0.000000    0.000000    
57.154709    87.408203    19.767254    0.317437    -0.068772    85.282532    2.126675    -2.498220    -1.388605    -4.064488    -3.412276    -1.556136    -2.897837    17.291237    -9.880325    12.126339    3.109599    -8.924674    17.117392    -0.104930    4.623012    -17.671690    -4.003888    -10.137041    3.159139    -2.476681    -0.769811    -5.613337    -2.498049    0.869273    -13.401849    -0.168776    12.513451    14.944132    -0.420991    1.962037    -1.584999    -0.856908    0.863938    2.842221    -0.700629    5.814446    7.429311    6.277848    2.446292    -4.225459    4.459820    3.534483    -4.960106    -10.035982    14.832911    0.000000    0.000000    0.000000    -8.076642    0.335907    -1.210928    3.905778    9.114987    -0.750839    4.206792    -9.379982    -9.861236    0.000000    0.000000    0.000000    
57.156872    87.407234    19.764481    0.307630    -0.072569    85.279221    2.115602    -2.502782    -1.371746    -4.029074    -3.408000    -1.537880    -2.864167    17.275549    -9.898689    12.068326    3.123424    -8.951259    17.115730    -0.118085    4.598408    -17.690426    -3.976945    -10.142557    3.185333    -2.530185    -0.789175    -5.564547    -2.551505    0.890310    -13.415951    -0.188839    12.471169    14.942652    -0.378073    1.965114    -1.594987    -0.841074    0.880079    2.895015    -0.682862    5.772977    7.430435    6.266403    2.455028    -4.221583    4.467780    3.526064    -4.941419    -10.036511    14.828797    0.000000    0.000000    0.000000    -8.069069    0.330330    -1.220674    3.893687    9.102810    -0.758695    4.214254    -9.368992    -9.838303    0.000000    0.000000    0.000000    
57.170151    87.411514    19.762312    0.342922    -0.069289    85.264000    2.126883    -2.477922    -1.368573    -4.051834    -3.395754    -1.534773    -2.735572    17.102472    -9.871237    11.854620    3.332309    -8.962909    17.130836    -0.110981    4.612250    -17.696917    -3.989823    -10.154042    3.182139    -2.576439    -0.805390    -5.460800    -2.597898    0.919664    -13.408031    -0.183944    12.477039    14.946491    -0.359812    1.972955    -1.613348    -0.837599    0.892136    2.892946    -0.679221    5.771022    7.422720    6.331984    2.458021    -4.225843    4.433648    3.527148    -4.945427    -10.016294    14.832616    0.000000    0.000000    0.000000    -8.075774    0.373302    -1.187939    3.892390    9.097878    -0.769170    4.222826    -9.362244    -9.843499    0.000000    0.000000    0.000000    
57.173508    87.409851    19.759615    0.344590    -0.069782    85.255882    2.139797    -2.466220    -1.369066    -4.059055    -3.410846    -1.536034    -2.856339    17.326654    -9.888054    12.056360    3.075836    -8.937840    17.101774    -0.055636    4.591693    -17.666878    -4.044946    -10.126134    3.181381    -2.607543    -0.828568    -5.426409    -2.624054    0.834233    -13.412415    -0.165826    12.494151    14.947693    -0.381043    1.979693    -1.623209    -0.835281    0.894879    2.968520    -0.674043    5.728506    7.417095    6.333499    2.458968    -4.218660    4.447606    3.533506    -4.958134    -10.034851    14.828129    0.000000    0.000000    0.000000    -8.080202    0.376681    -1.173789    3.901812    9.092562    -0.792449    4.225140    -9.360153    -9.830610    0.000000    0.000000    0.000000    
57.179451    87.409447    19.755856    0.347640    -0.068427    85.253227    2.169176    -2.470839    -1.377790    -4.098683    -3.394316    -1.546105    -2.876121    17.290873    -9.880933    12.076555    3.131137    -8.933081    17.120560    -0.064904    4.624147    -17.672874    -4.057791    -10.132130    3.196472    -2.570802    -0.806145    -5.484169    -2.578896    0.638350    -13.422791    -0.181285    12.508584    14.973428    -0.372937    1.994510    -1.616089    -0.864844    0.882579    2.827743    -0.709222    5.798476    7.411845    6.342611    2.467704    -4.216129    4.409804    3.930473    -4.985628    -9.956383    14.431351    0.000000    0.000000    0.000000    -8.086487    0.386173    -1.178252    3.906038    9.090169    -0.774997    4.214160    -9.361790    -9.851077    0.000000    0.000000    0.000000    
57.181370    87.408455    19.752104    0.341610    -0.067172    85.251907    2.159555    -2.475130    -1.368887    -4.072516    -3.387260    -1.536044    -2.844032    17.301752    -9.883127    12.024370    3.095945    -8.937662    17.122118    -0.056927    4.613212    -17.724123    -4.066223    -10.122707    3.281788    -2.617920    -0.908608    -5.518398    -2.629504    0.780627    -13.433369    -0.185109    12.483245    14.968444    -0.359216    2.000093    -1.619347    -0.893771    0.898628    2.812551    -0.738589    5.801927    7.411206    6.339319    2.465386    -4.226859    4.439905    3.553354    -4.932055    -10.028287    14.812970    0.000000    0.000000    0.000000    -8.087075    0.383407    -1.183217    3.898253    9.083285    -0.785825    4.245333    -9.362664    -9.824048    0.000000    0.000000    0.000000    
57.175480    87.403259    19.748112    0.307062    -0.071286    85.257614    2.197027    -2.490967    -1.379136    -4.109725    -3.411454    -1.549393    -2.857185    17.317095    -9.875577    12.040483    3.100234    -8.928914    17.134161    -0.064174    4.622658    -17.725704    -4.037506    -10.100778    3.300508    -2.672550    -0.934956    -5.545061    -2.682869    0.769165    -13.430984    -0.174841    12.511123    14.979584    -0.370424    1.997101    -1.621476    -0.910166    0.908982    2.810894    -0.754589    5.813377    7.417679    6.291214    2.461079    -4.228226    4.458279    3.564042    -4.915035    -10.047625    14.805614    0.000000    0.000000    0.000000    -8.088117    0.338594    -1.182872    3.911663    9.101327    -0.780284    4.220805    -9.379293    -9.844342    0.000000    0.000000    0.000000    
